<svg width="621" height="607" viewBox="0 0 621 607" fill="none" xmlns="http://www.w3.org/2000/svg">
<g id="Frame 2147226707">
<circle id="Vector" cx="310.5" cy="303.5" r="303.5" fill="url(#paint0_linear_0_4)"/>
<path id="Vector_2" d="M188.587 260.25C170.997 276.149 172.672 298.384 162.022 315.838C141.44 217.452 154.723 164.255 206.775 140.824C195.168 176.209 183.561 210.519 194.809 248.295C200.194 229.646 205.459 210.997 211.083 192.467C216.707 173.938 221.135 155.05 228.554 137.238C249.734 86.6701 295.684 63.3589 349.172 75.0743C387.464 83.562 423.602 97.7878 451.842 126.12C504.732 179.198 492.168 255.587 427.311 292.885C397.635 309.98 368.079 329.705 344.865 354.331C330.505 369.633 319.377 391.39 310.163 411.952C305.017 423.309 298.436 426.776 286.829 421.516C250.332 404.779 213.835 388.163 177.099 371.905C167.287 367.601 168.484 361.145 170.039 352.658C175.663 322.772 187.39 293.961 188.587 260.25Z" fill="#F5F5F5"/>
<path id="Vector_3" d="M159.509 408.724C161.543 402.628 154.124 387.565 171.714 396.292C195.527 408.007 219.1 420.201 243.511 430.601C267.802 441.002 292.931 448.892 321.171 452.358C310.043 477.343 299.752 500.176 289.581 522.89C284.076 535.203 273.067 536.638 262.298 534.725C222.211 527.433 185.834 510.696 152.329 487.983C141.32 480.452 139.286 467.66 143.594 454.869C146.944 444.827 151.013 435.024 154.842 425.102C182.603 428.928 207.972 442.078 235.972 445.066C226.639 443.153 217.305 440.763 208.091 439.448C186.911 436.339 174.706 420.44 159.509 408.724Z" fill="white"/>
<path id="Vector_4" d="M354.916 420.44C372.626 390.673 380.524 361.026 411.037 341.66C428.508 330.542 440.594 308.546 460.099 296.472C461.774 295.515 463.329 294.559 465.244 293.363C474.458 339.149 424.439 398.204 354.916 420.44Z" fill="#F3F3F3"/>
</g>
<defs>
<linearGradient id="paint0_linear_0_4" x1="310.5" y1="7.45056e-09" x2="310.5" y2="607" gradientUnits="userSpaceOnUse">
<stop stop-color="#CE091C"/>
<stop offset="1" stop-color="#8D0613"/>
</linearGradient>
</defs>
</svg>
