<svg preserveAspectRatio="none" overflow="visible" style="display: block;" width="72" height="72" viewBox="0 0 72 72" fill="none" xmlns="http://www.w3.org/2000/svg">
<g id="icon-badge">
<rect width="72" height="72" rx="36" fill="#EB1110"/>
<path id="Vector" d="M54 36H49.536C48.7493 35.9983 47.9838 36.2543 47.3564 36.7289C46.729 37.2035 46.2744 37.8706 46.062 38.628L41.832 53.676C41.8047 53.7695 41.7479 53.8516 41.67 53.91C41.5921 53.9684 41.4974 54 41.4 54C41.3026 54 41.2079 53.9684 41.13 53.91C41.0521 53.8516 40.9953 53.7695 40.968 53.676L31.032 18.324C31.0047 18.2305 30.9479 18.1484 30.87 18.09C30.7921 18.0316 30.6974 18 30.6 18C30.5026 18 30.4079 18.0316 30.33 18.09C30.2521 18.1484 30.1953 18.2305 30.168 18.324L25.938 33.372C25.7264 34.1265 25.2745 34.7913 24.6508 35.2656C24.027 35.7399 23.2656 35.9978 22.482 36H18" stroke="white" stroke-width="2.5" stroke-linecap="round"/>
</g>
</svg>
